<?xml version="1.0" encoding="UTF-8" standalone="no"?>
<svg width="32px" height="32px" viewBox="0 0 32 32" version="1.1" xmlns="http://www.w3.org/2000/svg" xmlns:xlink="http://www.w3.org/1999/xlink">
    <!-- Generator: Sketch 40.3 (33839) - http://www.bohemiancoding.com/sketch -->
    <title>Slice 1</title>
    <desc>Created with Sketch.</desc>
    <defs></defs>
    <g id="Page-1" stroke="none" stroke-width="1" fill="none" fill-rule="evenodd">
        <g id="icon_search" fill="#FFFFFF">
            <g id="Group">
                <path d="M31.12,26.879 L23.778,19.537 C22.683,21.238 21.237,22.685 19.536,23.779 L26.879,31.121 C28.051,32.293 29.95,32.293 31.12,31.121 C32.293,29.952 32.293,28.053 31.12,26.879 L31.12,26.879 Z" id="Shape"></path>
                <path d="M24,12 C24,5.373 18.627,0 12,0 C5.373,0 0,5.373 0,12 C0,18.627 5.373,24 12,24 C18.627,24 24,18.627 24,12 L24,12 Z M12,21 C7.036,21 3,16.964 3,12 C3,7.037 7.036,3 12,3 C16.963,3 21,7.037 21,12 C21,16.964 16.963,21 12,21 L12,21 Z" id="Shape"></path>
                <path d="M5,12 L7,12 C7,9.243 9.242,7 12,7 L12,5 C8.14,5 5,8.142 5,12 L5,12 Z" id="Shape"></path>
            </g>
        </g>
    </g>
</svg>